:FULLY-SPECIFIED
:FORCE-ALL-JOINTS-BE-3DOF
:DEGREES
34
root 5.98444 16.8966 -28.0789 9.68031 -2.27586 -2.4279
lfemur -19.0734 0.796311 -19.8601
ltibia 32.9065 0 0
lfoot -37.5627 5.33774 0
ltoes 37.6193 0 0
rfemur -16.8714 6.68296 19.4384
rtibia 31.0617 0 0
rfoot -27.9412 -17.6447 0
rtoes 18.0191 0 0
lowerback -4.89283 2.71275 -2.25058
upperback -2.10558 3.70203 1.68026
thorax 0.327643 1.87258 3.16749
lowerneck -9.66863 -1.7423 2.39124
upperneck -2.21821 -2.56303 -0.145737
head 0.88759 -1.29294 -0.535804
lclavicle 7.15573e-14 1.7959e-14 0
lhumerus -41.7342 -11.6725 97.4573
lradius 36.1543 0 0
lwrist 4.02178 0 0
lhand -11.2498 5.07201 0
lfingers 7.12502 0 0
lthumb 14.7798 34.5249 0
rclavicle 7.15573e-14 1.7959e-14 0
rhumerus -41.2403 -5.4571 -87.3952
rradius 39.5373 0 0
rwrist 10.9046 0 0
rhand -27.2116 -19.6912 0
rfingers 7.12502 0 0
rthumb -0.624454 -49.6719 0
35
root 5.97729 16.8968 -28.0795 9.69104 -2.27546 -2.40705
lfemur -19.0528 0.747063 -19.8663
ltibia 32.8558 0 0
lfoot -37.5623 5.38872 0
ltoes 37.5476 0 0
rfemur -16.8845 6.66876 19.4276
rtibia 31.0628 0 0
rfoot -27.9258 -17.6475 0
rtoes 17.8808 0 0
lowerback -4.92034 2.70244 -2.20942
upperback -2.09757 3.68616 1.63604
thorax 0.355651 1.86464 3.09954
lowerneck -9.6617 -1.73309 2.41491
upperneck -2.22741 -2.55305 -0.109377
head 0.883641 -1.28774 -0.528033
lclavicle 6.83213e-14 1.72433e-14 0
lhumerus -41.7287 -11.7194 97.4427
lradius 36.2765 0 0
lwrist 4.10149 0 0
lhand -11.2716 5.04231 0
lfingers 7.12502 0 0
lthumb 14.7588 34.4967 0
rclavicle 6.83213e-14 1.72433e-14 0
rhumerus -41.2168 -5.47324 -87.453
rradius 39.5023 0 0
rwrist 10.9175 0 0
rhand -27.1846 -19.7218 0
rfingers 7.12502 0 0
rthumb -0.598346 -49.7024 0
36
root 5.97015 16.897 -28.0802 9.71027 -2.26018 -2.38084
lfemur -19.0638 0.717623 -19.8704
ltibia 32.8349 0 0
lfoot -37.5151 5.40777 0
ltoes 37.4399 0 0
rfemur -16.8977 6.64332 19.4193
rtibia 31.0524 0 0
rfoot -27.898 -17.667 0
rtoes 17.6162 0 0
lowerback -4.95992 2.68547 -2.13318
upperback -2.08362 3.6601 1.5677
thorax 0.4003 1.85121 2.98757
lowerneck -9.65274 -1.72114 2.44623
upperneck -2.25057 -2.54004 -0.051238
head 0.875126 -1.2809 -0.51454
lclavicle 6.40828e-14 1.63813e-14 0
lhumerus -41.7175 -11.7877 97.4094
lradius 36.4641 0 0
lwrist 4.22145 0 0
lhand -11.3021 4.98523 0
lfingers 7.12502 0 0
lthumb 14.7295 34.4417 0
rclavicle 6.40828e-14 1.63813e-14 0
rhumerus -41.1768 -5.47742 -87.55
rradius 39.4617 0 0
rwrist 10.9264 0 0
rhand -27.1498 -19.7631 0
rfingers 7.12502 0 0
rthumb -0.564771 -49.7436 0
37
root 5.963 16.8973 -28.0809 9.73949 -2.22755 -2.34841
lfemur -19.1112 0.71124 -19.8721
ltibia 32.8484 0 0
lfoot -37.4132 5.38962 0
ltoes 37.2905 0 0
rfemur -16.9103 6.60682 19.4137
rtibia 31.0272 0 0
rfoot -27.8553 -17.7078 0
rtoes 17.2051 0 0
lowerback -5.01407 2.66058 -2.01574
upperback -2.06268 3.62198 1.47122
thorax 0.464801 1.83126 2.82414
lowerneck -9.64144 -1.70591 2.48635
upperneck -2.29009 -2.52338 0.0323027
head 0.861264 -1.27208 -0.494346
lclavicle 5.87355e-14 1.53719e-14 0
lhumerus -41.6997 -11.8809 97.3539
lradius 36.7271 0 0
lwrist 4.38795 0 0
lhand -11.3425 4.89527 0
lfingers 7.12502 0 0
lthumb 14.6905 34.3546 0
rclavicle 5.87355e-14 1.53719e-14 0
rhumerus -41.1174 -5.46771 -87.6927
rradius 39.4145 0 0
rwrist 10.9308 0 0
rhand -27.1073 -19.8159 0
rfingers 7.12502 0 0
rthumb -0.523724 -49.7963 0
38
root 5.95585 16.8975 -28.0815 9.78015 -2.17508 -2.30892
lfemur -19.2 0.73116 -19.8709
ltibia 32.9006 0 0
lfoot -37.2488 5.32903 0
ltoes 37.0939 0 0
rfemur -16.9215 6.55944 19.4115
rtibia 30.9838 0 0
rfoot -27.7951 -17.7748 0
rtoes 16.6273 0 0
lowerback -5.08531 2.62652 -1.851
upperback -2.0337 3.56991 1.34258
thorax 0.552364 1.80373 2.60182
lowerneck -9.62748 -1.68686 2.53641
upperneck -2.34839 -2.50244 0.144867
head 0.841271 -1.26095 -0.466468
lclavicle 5.21732e-14 1.42141e-14 0
lhumerus -41.6744 -12.0021 97.2727
lradius 37.0755 0 0
lwrist 4.60732 0 0
lhand -11.3943 4.76696 0
lfingers 7.12502 0 0
lthumb 14.6406 34.2298 0
rclavicle 5.21732e-14 1.42141e-14 0
rhumerus -41.0355 -5.44218 -87.8879
rradius 39.36 0 0
rwrist 10.93 0 0
rhand -27.0571 -19.8806 0
rfingers 7.12502 0 0
rthumb -0.475195 -49.8609 0
39
root 5.94871 16.8977 -28.0822 9.83373 -2.10029 -2.2615
lfemur -19.3351 0.780633 -19.8664
ltibia 32.9962 0 0
lfoot -37.0139 5.22072 0
ltoes 36.8446 0 0
rfemur -16.9303 6.50136 19.4129
rtibia 30.9189 0 0
rfoot -27.7148 -17.8727 0
rtoes 15.8626 0 0
lowerback -5.17615 2.58203 -1.63285
upperback -1.99564 3.50202 1.17777
thorax 0.6662 1.76759 2.31316
lowerneck -9.61055 -1.66346 2.59755
upperneck -2.4279 -2.47661 0.290078
head 0.814364 -1.24718 -0.429925
lclavicle 4.42895e-14 1.29067e-14 0
lhumerus -41.6409 -12.1547 97.1621
lradius 37.5191 0 0
lwrist 4.88584 0 0
lhand -11.4589 4.59481 0
lfingers 7.12502 0 0
lthumb 14.5784 34.0622 0
rclavicle 4.42895e-14 1.29067e-14 0
rhumerus -40.9282 -5.39891 -88.1423
rradius 39.2972 0 0
rwrist 10.9238 0 0
rhand -26.9991 -19.958 0
rfingers 7.12502 0 0
rthumb -0.419176 -49.9382 0
40
root 5.94156 16.898 -28.0828 9.9017 -2.00069 -2.20531
lfemur -19.5216 0.862905 -19.8581
ltibia 33.1394 0 0
lfoot -36.7006 5.05943 0
ltoes 36.537 0 0
rfemur -16.9359 6.43276 19.4186
rtibia 30.8292 0 0
rfoot -27.6119 -18.0061 0
rtoes 14.8909 0 0
lowerback -5.28911 2.52585 -1.35519
upperback -1.94744 3.41642 0.972774
thorax 0.80952 1.72178 1.95073
lowerneck -9.59033 -1.63516 2.67093
upperneck -2.53103 -2.44527 0.471557
head 0.779762 -1.23044 -0.383736
lclavicle 3.49782e-14 1.14489e-14 0
lhumerus -41.5982 -12.3419 97.0186
lradius 38.0679 0 0
lwrist 5.22982 0 0
lhand -11.5376 4.37333 0
lfingers 7.12502 0 0
lthumb 14.5025 33.8461 0
rclavicle 3.49782e-14 1.14489e-14 0
rhumerus -40.7923 -5.33598 -88.4626
rradius 39.2254 0 0
rwrist 10.9115 0 0
rhand -26.9333 -20.0488 0
rfingers 7.12502 0 0
rthumb -0.35566 -50.0288 0
41
root 5.93441 16.8982 -28.0835 9.98552 -1.87381 -2.13949
lfemur -19.7642 0.981225 -19.8456
ltibia 33.3348 0 0
lfoot -36.3011 4.8399 0
ltoes 36.1655 0 0
rfemur -16.9375 6.35383 19.429
rtibia 30.7113 0 0
rfoot -27.4838 -18.1799 0
rtoes 13.692 0 0
lowerback -5.42671 2.45672 -1.0119
upperback -1.88805 3.31125 0.723573
thorax 0.985534 1.66527 1.5071
lowerneck -9.56651 -1.60144 2.75767
upperneck -2.66019 -2.4078 0.692927
head 0.73668 -1.21038 -0.32692
lclavicle 2.4133e-14 9.83963e-15 0
lhumerus -41.5454 -12.5671 96.8385
lradius 38.7319 0 0
lwrist 5.64556 0 0
lhand -11.6319 4.09704 0
lfingers 7.12502 0 0
lthumb 14.4117 33.5764 0
rclavicle 2.4133e-14 9.83963e-15 0
rhumerus -40.6249 -5.25146 -88.8554
rradius 39.1436 0 0
rwrist 10.8928 0 0
rhand -26.8598 -20.1535 0
rfingers 7.12502 0 0
rthumb -0.284638 -50.1334 0
